<svg width="384" height="384" viewBox="0 0 268 268" fill="none" xmlns="http://www.w3.org/2000/svg">
<path d="M6 150.782C6 149.587 34.2005 128.067 81.6285 91.9137C111.861 68.8681 123.858 53.0998 130.576 43.1633C141.972 26.3074 135.774 9.62529 133.412 6.9104C131.14 4.29838 123.146 7.77917 116.428 11.39C103.804 18.1755 92.3105 36.0684 79.6345 59.2807C65.5022 85.1599 63.0181 109.008 56.6564 137.714C52.7476 155.351 53.4755 180.79 55.4457 207.36C57.7051 237.828 56.6326 259.359 59.3862 261.477C63.0679 264.308 70.8515 255.196 77.1658 244.979C85.3371 231.757 86.7084 204.066 85.925 172.419C85.4796 154.424 81.1775 147.18 78.4239 143.569C76.8686 141.53 73.3203 139.958 70.1394 139.035C66.9585 138.112 63.8252 138.112 60.6443 138.709C57.4634 139.307 54.3301 140.501 51.5409 142.908C48.7517 145.316 46.4017 148.899 45.5827 151.94C44.7637 154.981 45.5471 157.37 47.909 158.601C62.2998 166.099 85.8538 149.008 101.687 137.252C111.704 129.815 113.603 121.841 114.79 121.216C127.829 114.356 119.134 142.89 125.057 150.456C127.931 154.127 134.16 154.999 138.896 155.008C152.307 155.033 153.174 138.148 157.115 124.891C158.529 120.131 158.705 116.411 159.892 116.384C180.462 115.913 162.669 142.89 165.814 150.456C166.583 152.304 169.743 153.171 172.52 153.786C175.298 154.401 178.431 154.401 181.612 153.506C188.395 151.595 194.288 144.791 199.035 135.768C204.061 126.217 199.866 118.221 197.113 115.506C195.698 114.111 192.009 114.583 190.395 116.375C188.781 118.167 188.781 121.75 189.956 123.895C191.131 126.04 193.481 126.637 196.258 126.646C209.144 126.688 219.592 116.429 226.346 109.18C234.951 99.9436 233.882 82.6559 235.853 72.095C238.48 58.0091 238.63 49.4618 240.6 41.9144C241.148 39.8157 241.004 37.4077 240.612 37.3715C231.789 36.556 237.063 51.1994 234.286 62.9548C232.374 71.0464 231.509 78.3483 229.147 87.3979C226.597 97.1688 222.821 107.886 221.622 118.167C220.417 128.499 220.423 136.284 222.785 139.596C227.822 146.66 240.956 146.546 256.374 146.863C259.99 146.937 262.32 145.967 261.964 146.257C255.087 151.85 241.075 150.782 230.001 149.886C225.833 149.548 225.194 147.198 224.399 145.379C215.169 124.266 225.147 80.8822 228.731 70.5746C229.55 68.2202 229.135 65.172 227.96 63.0363C225.789 59.0899 219.664 57.878 214.536 57.2717C208.646 56.5751 202.264 59.0725 203 59.9775C217.836 60.2852 234.618 61.4798 245.277 63.2897C250.451 63.9051 255.151 63.9051 259.994 65.715" stroke="white" stroke-width="12" stroke-linecap="round"/>
</svg>
