<svg width="261" height="260" viewBox="0 0 261 260" fill="none" xmlns="http://www.w3.org/2000/svg">
    <path id="signature" class="group-hover:text-primary" pathLength="100" d="M2.6084 146.782C2.6084 145.587 30.8089 124.067 78.2369 87.9137C108.469 64.8681 120.466 49.0998 127.184 39.1633C138.58 22.3074 132.383 5.62529 130.021 2.9104C127.748 0.298384 119.754 3.77917 113.036 7.38997C100.412 14.1755 88.9189 32.0684 76.2429 55.2807C62.1106 81.1599 59.6265 105.008 53.2648 133.714C49.356 151.351 50.0839 176.79 52.0541 203.36C54.3135 233.828 53.241 255.359 55.9946 257.477C59.6763 260.308 67.4599 251.196 73.7742 240.979C81.9455 227.757 83.3168 200.066 82.5334 168.419C82.088 150.424 77.7859 143.18 75.0323 139.569C73.477 137.53 69.9287 135.958 66.7478 135.035C63.5669 134.112 60.4336 134.112 57.2527 134.709C54.0718 135.307 50.9385 136.501 48.1493 138.908C45.3601 141.316 43.0101 144.899 42.1911 147.94C41.3721 150.981 42.1555 153.37 44.5174 154.601C58.9082 162.099 82.4622 145.008 98.2953 133.252C108.313 125.815 110.212 117.841 111.399 117.216C124.438 110.356 115.743 138.89 121.665 146.456C124.539 150.127 130.769 150.999 135.504 151.008C148.916 151.033 149.782 134.148 153.723 120.891C155.138 116.131 155.313 112.411 156.5 112.384C177.07 111.913 159.278 138.89 162.423 146.456C163.191 148.304 166.351 149.171 169.129 149.786C171.906 150.401 175.039 150.401 178.22 149.506C185.004 147.595 190.896 140.791 195.644 131.768C200.669 122.217 196.475 114.221 193.721 111.506C192.306 110.111 188.617 110.583 187.003 112.375C185.389 114.167 185.389 117.75 186.564 119.895C187.739 122.04 190.089 122.637 192.866 122.646C205.752 122.688 216.201 112.429 222.954 105.18C231.56 95.9436 230.491 78.6559 232.461 68.095C235.089 54.0091 235.238 45.4618 237.209 37.9144C237.756 35.8157 237.612 33.4077 237.22 33.3715C228.397 32.556 233.672 47.1994 230.894 58.9548C228.983 67.0464 228.117 74.3483 225.755 83.3979C223.205 93.1688 219.429 103.886 218.23 114.167C217.025 124.499 217.032 132.284 219.393 135.596C224.43 142.66 237.565 142.546 252.982 142.863C256.599 142.937 258.929 141.967 258.573 142.257C251.696 147.85 237.683 146.782 226.61 145.886C222.441 145.548 221.803 143.198 221.008 141.379C211.777 120.266 221.755 76.8822 225.34 66.5746C226.158 64.2202 225.743 61.172 224.568 59.0363C222.397 55.0899 216.272 53.878 211.145 53.2717C205.254 52.5751 198.872 55.0725 199.608 55.9775C214.444 56.2852 231.227 57.4798 241.885 59.2897C247.06 59.9051 251.76 59.9051 256.602 61.715" stroke="white" stroke-width="4" stroke-linecap="round"/>
</svg>
